<?xml version="1.0" encoding="UTF-8"?><svg id="_Слой_2" xmlns="http://www.w3.org/2000/svg" width="330.33" height="14.73" viewBox="0 0 330.33 14.73"><defs><style>.cls-1{fill:#b9fd50;stroke-width:0px;}</style></defs><g id="_Слой_1-2"><path class="cls-1" d="M330.04,6.66l-6.36-6.36c-.39-.39-1.02-.39-1.41,0-.39.39-.39,1.02,0,1.41l4.66,4.66H10.57c-.47-2.47-2.63-4.33-5.23-4.33C2.39,2.03,0,4.42,0,7.36s2.39,5.33,5.33,5.33c2.6,0,4.76-1.87,5.23-4.33h316.35l-4.66,4.66c-.39.39-.39,1.02,0,1.41.39.39,1.02.39,1.41,0l6.36-6.36c.39-.39.39-1.02,0-1.41Z"/></g></svg>