<svg width="183" height="48" viewBox="0 0 183 48" fill="none" xmlns="http://www.w3.org/2000/svg">
<path d="M15.7144 33.4284C24.3931 33.4284 31.4287 26.3929 31.4287 17.7141C31.4287 16.7306 31.3383 15.7681 31.1654 14.8345C30.2319 14.6617 29.2694 14.5713 28.2858 14.5713C19.6071 14.5713 12.5715 21.6068 12.5715 30.2856C12.5715 31.2692 12.6619 32.2317 12.8348 33.1652C13.7683 33.3381 14.7308 33.4284 15.7144 33.4284Z" fill="white"/>
<path fill-rule="evenodd" clip-rule="evenodd" d="M12.8347 33.1653C5.53118 31.8127 0 25.4095 0 17.7143C0 9.03553 7.03553 2 15.7143 2C23.4095 2 29.8128 7.53118 31.1653 14.8347C30.2318 14.6618 29.2693 14.5714 28.2857 14.5714C19.607 14.5714 12.5714 21.607 12.5714 30.2857C12.5714 31.2693 12.6618 32.2318 12.8347 33.1653Z" fill="#CDD0D8"/>
<path fill-rule="evenodd" clip-rule="evenodd" d="M15.7143 33.4284C24.3931 33.4284 31.4286 26.3928 31.4286 17.7141C31.4286 16.7305 31.3382 15.768 31.1654 14.8345C38.4689 16.187 44 22.5903 44 30.2855C44 38.9643 36.9645 45.9998 28.2858 45.9998C20.5906 45.9998 14.1873 40.4686 12.8347 33.1651C13.7682 33.338 14.7307 33.4284 15.7143 33.4284Z" fill="#CDD0D8"/>
<path d="M74.2281 28.9042C73.6681 30.7148 72.6881 32.0682 71.2881 32.9642C69.8881 33.8415 68.2548 34.2802 66.3881 34.2802C64.5588 34.2802 62.9721 33.8975 61.6281 33.1322C60.3028 32.3668 59.2761 31.2748 58.5481 29.8562C57.8388 28.4375 57.4841 26.7388 57.4841 24.7602C57.4841 22.7815 57.8481 21.0828 58.5761 19.6642C59.3041 18.2455 60.3308 17.1535 61.6561 16.3882C62.9815 15.6228 64.5401 15.2402 66.3321 15.2402C68.2175 15.2402 69.8321 15.6415 71.1761 16.4442C72.5388 17.2282 73.4721 18.4228 73.9761 20.0282L70.4761 21.5122C70.1588 20.3922 69.6735 19.5988 69.0201 19.1322C68.3668 18.6468 67.5268 18.4042 66.5001 18.4042C64.9695 18.4042 63.7468 18.9548 62.8321 20.0562C61.9361 21.1388 61.4881 22.7068 61.4881 24.7602C61.4881 26.7948 61.9175 28.3628 62.7761 29.4642C63.6348 30.5655 64.8761 31.1162 66.5001 31.1162C67.5081 31.1162 68.3761 30.8455 69.1041 30.3042C69.8508 29.7628 70.3735 28.9415 70.6721 27.8402L74.2281 28.9042Z" fill="#CDD0D8"/>
<path d="M79.0614 17.9842C77.4747 17.9842 76.6814 17.3028 76.6814 15.9402C76.6814 14.5588 77.4747 13.8682 79.0614 13.8682C80.6481 13.8682 81.4414 14.5588 81.4414 15.9402C81.4414 17.3028 80.6481 17.9842 79.0614 17.9842ZM80.9654 20.0002V34.0002H77.1294V20.0002H80.9654Z" fill="#CDD0D8"/>
<path d="M85.0318 34.0002V20.0002H88.3637L88.6157 22.7442C88.9704 21.7922 89.5024 21.0548 90.2117 20.5322C90.9397 19.9908 91.8544 19.7202 92.9557 19.7202C93.6091 19.7202 94.1131 19.8228 94.4677 20.0282L94.0197 23.2482C93.8331 23.1922 93.5997 23.1455 93.3197 23.1082C93.0584 23.0522 92.7131 23.0242 92.2837 23.0242C91.7051 23.0242 91.1544 23.1642 90.6317 23.4442C90.1277 23.7055 89.7077 24.1162 89.3717 24.6762C89.0357 25.2175 88.8678 25.9082 88.8678 26.7482V34.0002H85.0318Z" fill="#CDD0D8"/>
<path d="M102.927 19.7202C104.793 19.7202 106.24 20.1215 107.267 20.9242C108.312 21.7268 109.003 22.6975 109.339 23.8362L105.755 25.1242C105.381 23.4255 104.457 22.5762 102.983 22.5762C101.919 22.5762 101.088 22.9495 100.491 23.6962C99.9121 24.4428 99.6228 25.5535 99.6228 27.0282C99.6228 28.5215 99.9215 29.6322 100.519 30.3602C101.135 31.0695 101.965 31.4242 103.011 31.4242C104.635 31.4242 105.605 30.5935 105.923 28.9322L109.395 30.0522C109.077 31.3028 108.368 32.3202 107.267 33.1042C106.184 33.8882 104.775 34.2802 103.039 34.2802C101.583 34.2802 100.304 33.9908 99.2028 33.4122C98.1201 32.8335 97.2801 32.0028 96.6828 30.9202C96.0855 29.8375 95.7868 28.5308 95.7868 27.0002C95.7868 25.4695 96.0855 24.1628 96.6828 23.0802C97.2988 21.9975 98.1388 21.1668 99.2028 20.5882C100.285 20.0095 101.527 19.7202 102.927 19.7202Z" fill="#CDD0D8"/>
<path d="M118.759 19.7202C120.159 19.7202 121.401 20.0095 122.483 20.5882C123.566 21.1668 124.406 21.9975 125.003 23.0802C125.619 24.1628 125.927 25.4695 125.927 27.0002C125.927 28.5308 125.619 29.8375 125.003 30.9202C124.406 32.0028 123.566 32.8335 122.483 33.4122C121.401 33.9908 120.159 34.2802 118.759 34.2802C117.341 34.2802 116.09 33.9908 115.007 33.4122C113.943 32.8335 113.103 32.0028 112.487 30.9202C111.89 29.8375 111.591 28.5308 111.591 27.0002C111.591 25.4695 111.89 24.1628 112.487 23.0802C113.103 21.9975 113.943 21.1668 115.007 20.5882C116.09 20.0095 117.341 19.7202 118.759 19.7202ZM118.759 22.5762C117.714 22.5762 116.893 22.9495 116.295 23.6962C115.717 24.4242 115.427 25.5255 115.427 27.0002C115.427 28.4748 115.717 29.5855 116.295 30.3322C116.893 31.0602 117.714 31.4242 118.759 31.4242C119.786 31.4242 120.589 31.0602 121.167 30.3322C121.765 29.5855 122.063 28.4748 122.063 27.0002C122.063 25.5255 121.765 24.4242 121.167 23.6962C120.589 22.9495 119.786 22.5762 118.759 22.5762Z" fill="#CDD0D8"/>
<path d="M135.521 19.7202C136.921 19.7202 138.163 20.0095 139.245 20.5882C140.328 21.1668 141.168 21.9975 141.765 23.0802C142.381 24.1628 142.689 25.4695 142.689 27.0002C142.689 28.5308 142.381 29.8375 141.765 30.9202C141.168 32.0028 140.328 32.8335 139.245 33.4122C138.163 33.9908 136.921 34.2802 135.521 34.2802C134.103 34.2802 132.852 33.9908 131.769 33.4122C130.705 32.8335 129.865 32.0028 129.249 30.9202C128.652 29.8375 128.353 28.5308 128.353 27.0002C128.353 25.4695 128.652 24.1628 129.249 23.0802C129.865 21.9975 130.705 21.1668 131.769 20.5882C132.852 20.0095 134.103 19.7202 135.521 19.7202ZM135.521 22.5762C134.476 22.5762 133.655 22.9495 133.057 23.6962C132.479 24.4242 132.189 25.5255 132.189 27.0002C132.189 28.4748 132.479 29.5855 133.057 30.3322C133.655 31.0602 134.476 31.4242 135.521 31.4242C136.548 31.4242 137.351 31.0602 137.929 30.3322C138.527 29.5855 138.825 28.4748 138.825 27.0002C138.825 25.5255 138.527 24.4242 137.929 23.6962C137.351 22.9495 136.548 22.5762 135.521 22.5762Z" fill="#CDD0D8"/>
<path d="M149.679 13.8682V29.6882C149.679 30.3415 149.791 30.7988 150.015 31.0602C150.239 31.3215 150.612 31.4522 151.135 31.4522C151.452 31.4522 151.714 31.4335 151.919 31.3962C152.124 31.3588 152.386 31.2842 152.703 31.1722L152.367 33.6922C152.05 33.8788 151.648 34.0188 151.163 34.1122C150.696 34.2242 150.23 34.2802 149.763 34.2802C148.4 34.2802 147.402 33.9535 146.767 33.3002C146.151 32.6282 145.843 31.5642 145.843 30.1082V13.8682H149.679Z" fill="#CDD0D8"/>
<path d="M161.336 34.2802C159.134 34.2802 157.37 33.6455 156.044 32.3762C154.719 31.0882 154.056 29.2962 154.056 27.0002C154.056 25.4695 154.355 24.1628 154.952 23.0802C155.55 21.9975 156.38 21.1668 157.444 20.5882C158.527 20.0095 159.759 19.7202 161.14 19.7202C162.559 19.7202 163.763 20.0095 164.752 20.5882C165.742 21.1482 166.498 21.9228 167.02 22.9122C167.543 23.8828 167.804 24.9935 167.804 26.2442C167.804 26.6175 167.795 26.9722 167.776 27.3082C167.758 27.6442 167.73 27.9428 167.692 28.2042H157.808C157.958 29.2868 158.331 30.0988 158.928 30.6402C159.544 31.1628 160.338 31.4242 161.308 31.4242C162.13 31.4242 162.792 31.2655 163.296 30.9482C163.8 30.6308 164.192 30.1922 164.472 29.6322L167.524 30.8082C167.076 31.9095 166.292 32.7682 165.172 33.3842C164.052 33.9815 162.774 34.2802 161.336 34.2802ZM161.112 22.5482C159.302 22.5482 158.21 23.5468 157.836 25.5442H164.136C164.024 24.5735 163.707 23.8362 163.184 23.3322C162.68 22.8095 161.99 22.5482 161.112 22.5482Z" fill="#CDD0D8"/>
<path d="M176.655 34.2802C175.236 34.2802 173.939 34.0282 172.763 33.5242C171.606 33.0202 170.663 32.3108 169.935 31.3962L172.147 29.1562C172.595 29.8282 173.192 30.3788 173.939 30.8082C174.686 31.2375 175.572 31.4522 176.599 31.4522C177.327 31.4522 177.906 31.3495 178.335 31.1442C178.783 30.9202 179.007 30.5748 179.007 30.1082C179.007 29.8095 178.905 29.5575 178.699 29.3522C178.494 29.1282 178.083 28.9508 177.467 28.8202L175.003 28.3162C173.379 27.9802 172.222 27.4762 171.531 26.8042C170.859 26.1135 170.523 25.2268 170.523 24.1442C170.523 23.3788 170.747 22.6602 171.195 21.9882C171.662 21.3162 172.352 20.7748 173.267 20.3642C174.182 19.9348 175.32 19.7202 176.683 19.7202C179.52 19.7202 181.555 20.5882 182.787 22.3242L180.491 24.5642C180.08 23.9108 179.539 23.4162 178.867 23.0802C178.214 22.7255 177.523 22.5482 176.795 22.5482C175.152 22.5482 174.331 23.0055 174.331 23.9202C174.331 24.2188 174.462 24.4802 174.723 24.7042C174.984 24.9095 175.46 25.0868 176.151 25.2362L179.007 25.8242C180.388 26.1042 181.378 26.5802 181.975 27.2522C182.572 27.9055 182.871 28.6988 182.871 29.6322C182.871 30.9762 182.33 32.0868 181.247 32.9642C180.183 33.8415 178.652 34.2802 176.655 34.2802Z" fill="#CDD0D8"/>
</svg>
