<svg width="187" height="48" viewBox="0 0 187 48" fill="none" xmlns="http://www.w3.org/2000/svg">
<path fill-rule="evenodd" clip-rule="evenodd" d="M22 36.4667C28.8851 36.4667 34.4667 30.8851 34.4667 24C34.4667 17.1149 28.8851 11.5333 22 11.5333C15.1148 11.5333 9.53333 17.1149 9.53333 24C9.53333 30.8851 15.1148 36.4667 22 36.4667ZM22 46C34.1503 46 44 36.1503 44 24C44 11.8497 34.1503 2 22 2C9.84973 2 0 11.8497 0 24C0 36.1503 9.84973 46 22 46Z" fill="#CDD0D8"/>
<path d="M22.2516 24.4819C24.5427 22.1908 28.2573 22.1908 30.5484 24.4819L41.9563 35.8898C44.2474 38.1809 44.2474 41.8955 41.9563 44.1866C39.6653 46.4776 35.9507 46.4776 33.6596 44.1866L22.2516 32.7786C19.9606 30.4875 19.9606 26.7729 22.2516 24.4819Z" fill="#CDD0D8"/>
<path d="M25.4548 35.9816L32.7002 43.2269C36.1754 41.2887 39.0707 38.4357 41.0603 34.9936L33.8743 27.8076C32.6121 31.747 29.4439 34.8334 25.4548 35.9816Z" fill="white"/>
<path d="M79.52 36.0999C78.8853 36.8839 78.1106 37.4812 77.196 37.8919C76.3 38.3025 75.3106 38.5079 74.228 38.5079C72.772 38.5079 71.456 38.1905 70.28 37.5559C69.104 36.9399 67.76 35.8385 66.248 34.2519C64.4746 34.0279 62.888 33.4585 61.488 32.5439C60.1066 31.6292 59.024 30.4532 58.24 29.0159C57.4746 27.5599 57.092 25.9545 57.092 24.1999C57.092 22.2772 57.5493 20.5505 58.464 19.0199C59.3973 17.4705 60.676 16.2572 62.3 15.3799C63.9426 14.5025 65.7813 14.0639 67.816 14.0639C69.8506 14.0639 71.68 14.5025 73.304 15.3799C74.928 16.2572 76.2066 17.4705 77.14 19.0199C78.0733 20.5505 78.54 22.2772 78.54 24.1999C78.54 26.4772 77.896 28.4745 76.608 30.1919C75.3386 31.9092 73.6493 33.1039 71.54 33.7759C72.0066 34.2612 72.4546 34.6065 72.884 34.8119C73.332 35.0359 73.808 35.1479 74.312 35.1479C75.5253 35.1479 76.5893 34.6625 77.504 33.6919L79.52 36.0999ZM61.684 24.1999C61.684 25.4132 61.9453 26.4959 62.468 27.4479C63.0093 28.3999 63.7466 29.1465 64.68 29.6879C65.6133 30.2105 66.6586 30.4719 67.816 30.4719C68.9733 30.4719 70.0186 30.2105 70.952 29.6879C71.8853 29.1465 72.6133 28.3999 73.136 27.4479C73.6773 26.4959 73.948 25.4132 73.948 24.1999C73.948 22.9865 73.6773 21.9039 73.136 20.9519C72.6133 19.9999 71.8853 19.2625 70.952 18.7399C70.0186 18.1985 68.9733 17.9279 67.816 17.9279C66.6586 17.9279 65.6133 18.1985 64.68 18.7399C63.7466 19.2625 63.0093 19.9999 62.468 20.9519C61.9453 21.9039 61.684 22.9865 61.684 24.1999Z" fill="#CDD0D8"/>
<path d="M96.817 18.9359V33.9999H92.673V32.2079C92.0943 32.8612 91.4036 33.3652 90.601 33.7199C89.7983 34.0559 88.9303 34.2239 87.997 34.2239C86.0183 34.2239 84.4503 33.6545 83.293 32.5159C82.1356 31.3772 81.557 29.6879 81.557 27.4479V18.9359H85.925V26.8039C85.925 29.2305 86.9423 30.4439 88.977 30.4439C90.0223 30.4439 90.8623 30.1079 91.497 29.4359C92.1316 28.7452 92.449 27.7279 92.449 26.3839V18.9359H96.817Z" fill="#CDD0D8"/>
<path d="M108.032 34.2239C106.445 34.2239 105.017 33.8972 103.748 33.2439C102.497 32.5719 101.517 31.6479 100.808 30.4719C100.098 29.2959 99.7436 27.9612 99.7436 26.4679C99.7436 24.9745 100.098 23.6399 100.808 22.4639C101.517 21.2879 102.497 20.3732 103.748 19.7199C105.017 19.0479 106.445 18.7119 108.032 18.7119C109.618 18.7119 111.037 19.0479 112.288 19.7199C113.538 20.3732 114.518 21.2879 115.228 22.4639C115.937 23.6399 116.292 24.9745 116.292 26.4679C116.292 27.9612 115.937 29.2959 115.228 30.4719C114.518 31.6479 113.538 32.5719 112.288 33.2439C111.037 33.8972 109.618 34.2239 108.032 34.2239ZM108.032 30.6399C109.152 30.6399 110.066 30.2665 110.776 29.5199C111.504 28.7545 111.868 27.7372 111.868 26.4679C111.868 25.1985 111.504 24.1905 110.776 23.4439C110.066 22.6785 109.152 22.2959 108.032 22.2959C106.912 22.2959 105.988 22.6785 105.26 23.4439C104.532 24.1905 104.168 25.1985 104.168 26.4679C104.168 27.7372 104.532 28.7545 105.26 29.5199C105.988 30.2665 106.912 30.6399 108.032 30.6399Z" fill="#CDD0D8"/>
<path d="M128.927 33.2719C128.498 33.5892 127.966 33.8319 127.331 33.9999C126.715 34.1492 126.062 34.2239 125.371 34.2239C123.579 34.2239 122.189 33.7665 121.199 32.8519C120.229 31.9372 119.743 30.5932 119.743 28.8199V22.6319H117.419V19.2719H119.743V15.6039H124.111V19.2719H127.863V22.6319H124.111V28.7639C124.111 29.3985 124.27 29.8932 124.587 30.2479C124.923 30.5839 125.39 30.7519 125.987 30.7519C126.678 30.7519 127.266 30.5652 127.751 30.1919L128.927 33.2719Z" fill="#CDD0D8"/>
<path d="M131.379 18.9359H135.747V33.9999H131.379V18.9359ZM133.563 16.8359C132.761 16.8359 132.107 16.6025 131.603 16.1359C131.099 15.6692 130.847 15.0905 130.847 14.3999C130.847 13.7092 131.099 13.1305 131.603 12.6639C132.107 12.1972 132.761 11.9639 133.563 11.9639C134.366 11.9639 135.019 12.1879 135.523 12.6359C136.027 13.0839 136.279 13.6439 136.279 14.3159C136.279 15.0439 136.027 15.6505 135.523 16.1359C135.019 16.6025 134.366 16.8359 133.563 16.8359Z" fill="#CDD0D8"/>
<path d="M154.557 26.5239C154.557 26.5799 154.529 26.9719 154.473 27.6999H143.077C143.282 28.6332 143.768 29.3705 144.533 29.9119C145.298 30.4532 146.25 30.7239 147.389 30.7239C148.173 30.7239 148.864 30.6119 149.461 30.3879C150.077 30.1452 150.646 29.7719 151.169 29.2679L153.493 31.7879C152.074 33.4119 150.002 34.2239 147.277 34.2239C145.578 34.2239 144.076 33.8972 142.769 33.2439C141.462 32.5719 140.454 31.6479 139.745 30.4719C139.036 29.2959 138.681 27.9612 138.681 26.4679C138.681 24.9932 139.026 23.6679 139.717 22.4919C140.426 21.2972 141.388 20.3732 142.601 19.7199C143.833 19.0479 145.205 18.7119 146.717 18.7119C148.192 18.7119 149.526 19.0292 150.721 19.6639C151.916 20.2985 152.849 21.2132 153.521 22.4079C154.212 23.5839 154.557 24.9559 154.557 26.5239ZM146.745 22.0159C145.756 22.0159 144.925 22.2959 144.253 22.8559C143.581 23.4159 143.17 24.1812 143.021 25.1519H150.441C150.292 24.1999 149.881 23.4439 149.209 22.8839C148.537 22.3052 147.716 22.0159 146.745 22.0159Z" fill="#CDD0D8"/>
<path d="M166.621 18.7119C168.488 18.7119 169.991 19.2719 171.129 20.3919C172.287 21.5119 172.865 23.1732 172.865 25.3759V33.9999H168.497V26.0479C168.497 24.8532 168.236 23.9665 167.713 23.3879C167.191 22.7905 166.435 22.4919 165.445 22.4919C164.344 22.4919 163.467 22.8372 162.813 23.5279C162.16 24.1999 161.833 25.2079 161.833 26.5519V33.9999H157.465V18.9359H161.637V20.6999C162.216 20.0652 162.935 19.5799 163.793 19.2439C164.652 18.8892 165.595 18.7119 166.621 18.7119Z" fill="#CDD0D8"/>
<path d="M186.541 33.2719C186.111 33.5892 185.579 33.8319 184.945 33.9999C184.329 34.1492 183.675 34.2239 182.985 34.2239C181.193 34.2239 179.802 33.7665 178.813 32.8519C177.842 31.9372 177.357 30.5932 177.357 28.8199V22.6319H175.033V19.2719H177.357V15.6039H181.725V19.2719H185.477V22.6319H181.725V28.7639C181.725 29.3985 181.883 29.8932 182.201 30.2479C182.537 30.5839 183.003 30.7519 183.601 30.7519C184.291 30.7519 184.879 30.5652 185.365 30.1919L186.541 33.2719Z" fill="#CDD0D8"/>
</svg>
