<svg width="194" height="48" viewBox="0 0 194 48" fill="none" xmlns="http://www.w3.org/2000/svg">
<path d="M33.8807 23.9999C30.3263 27.9712 25.1609 30.4705 19.4118 30.4705C13.6627 30.4705 8.4973 27.9712 4.94288 23.9999C8.49731 20.0286 13.6627 17.5293 19.4118 17.5293C25.1609 17.5293 30.3263 20.0286 33.8807 23.9999Z" fill="white"/>
<path fill-rule="evenodd" clip-rule="evenodd" d="M0 36.9411C0 26.2202 8.69094 17.5293 19.4118 17.5293C13.6626 17.5293 8.4973 20.0286 4.94288 23.9999C8.4973 27.9712 13.6627 30.4705 19.4118 30.4705C25.1609 30.4705 30.3263 27.9712 33.8807 23.9999C36.9545 27.4342 38.8235 31.9694 38.8235 36.9411V44.2744C38.8235 45.2274 38.051 45.9999 37.098 45.9999H1.72549C0.772528 45.9999 0 45.2274 0 44.2744V36.9411ZM33.8807 23.9999C33.8807 23.9999 33.8807 23.9999 33.8807 23.9999V23.9999Z" fill="#CDD0D8"/>
<path fill-rule="evenodd" clip-rule="evenodd" d="M12.1306 29.0589C9.35891 27.9366 6.90535 26.1926 4.94288 24C8.49731 20.0287 13.6627 17.5294 19.4118 17.5294C25.1609 17.5294 30.3263 20.0287 33.8807 24C33.8807 24 33.8807 24 33.8807 24C36.9545 20.5657 38.8235 16.0305 38.8235 11.0588V3.72549C38.8235 2.77253 38.051 2 37.098 2L1.7255 2C0.772537 2 8.35381e-06 2.77253 8.2705e-06 3.72549L7.62939e-06 11.0588C6.33995e-06 19.2047 5.01755 26.1788 12.1306 29.0589Z" fill="#CDD0D8"/>
<path d="M69.1441 14.4563V34.0003H65.2241V25.6843H56.8521V34.0003H52.9321V14.4563H56.8521V22.4923H65.2241V14.4563H69.1441Z" fill="#CDD0D8"/>
<path d="M79.8904 34.2523C78.3971 34.2523 77.0531 33.9256 75.8584 33.2723C74.6638 32.6003 73.7211 31.6576 73.0304 30.4443C72.3584 29.2309 72.0224 27.8309 72.0224 26.2443C72.0224 24.6576 72.3678 23.2576 73.0584 22.0443C73.7678 20.8309 74.7291 19.8976 75.9424 19.2443C77.1558 18.5723 78.5091 18.2363 80.0024 18.2363C81.4958 18.2363 82.8491 18.5723 84.0624 19.2443C85.2758 19.8976 86.2278 20.8309 86.9184 22.0443C87.6278 23.2576 87.9824 24.6576 87.9824 26.2443C87.9824 27.8309 87.6184 29.2309 86.8904 30.4443C86.1811 31.6576 85.2104 32.6003 83.9784 33.2723C82.7651 33.9256 81.4024 34.2523 79.8904 34.2523ZM79.8904 30.8363C80.5998 30.8363 81.2624 30.6683 81.8784 30.3323C82.5131 29.9776 83.0171 29.4549 83.3904 28.7643C83.7638 28.0736 83.9504 27.2336 83.9504 26.2443C83.9504 24.7696 83.5584 23.6403 82.7744 22.8563C82.0091 22.0536 81.0664 21.6523 79.9464 21.6523C78.8264 21.6523 77.8838 22.0536 77.1184 22.8563C76.3718 23.6403 75.9984 24.7696 75.9984 26.2443C75.9984 27.7189 76.3624 28.8576 77.0904 29.6603C77.8371 30.4443 78.7704 30.8363 79.8904 30.8363Z" fill="#CDD0D8"/>
<path d="M105.502 18.4883V34.0003H101.554V32.0403C101.05 32.7123 100.387 33.2443 99.5659 33.6363C98.7632 34.0096 97.8859 34.1963 96.9339 34.1963C95.7206 34.1963 94.6472 33.9443 93.7139 33.4403C92.7806 32.9176 92.0432 32.1616 91.5019 31.1723C90.9792 30.1643 90.7179 28.9696 90.7179 27.5883V18.4883H94.6379V27.0283C94.6379 28.2603 94.9459 29.2123 95.5619 29.8843C96.1779 30.5376 97.0179 30.8643 98.0819 30.8643C99.1646 30.8643 100.014 30.5376 100.63 29.8843C101.246 29.2123 101.554 28.2603 101.554 27.0283V18.4883H105.502Z" fill="#CDD0D8"/>
<path d="M113.29 20.8963C113.794 20.0749 114.447 19.4309 115.25 18.9643C116.071 18.4976 117.004 18.2643 118.05 18.2643V22.3803H117.014C115.782 22.3803 114.848 22.6696 114.214 23.2483C113.598 23.8269 113.29 24.8349 113.29 26.2723V34.0003H109.37V18.4883H113.29V20.8963Z" fill="#CDD0D8"/>
<path d="M126.766 18.2363C127.923 18.2363 128.941 18.4696 129.818 18.9363C130.695 19.3843 131.386 19.9723 131.89 20.7003V18.4883H135.838V34.1123C135.838 35.5496 135.549 36.8283 134.97 37.9483C134.391 39.0869 133.523 39.9829 132.366 40.6363C131.209 41.3083 129.809 41.6443 128.166 41.6443C125.963 41.6443 124.153 41.1309 122.734 40.1043C121.334 39.0776 120.541 37.6776 120.354 35.9043H124.246C124.451 36.6136 124.89 37.1736 125.562 37.5843C126.253 38.0136 127.083 38.2283 128.054 38.2283C129.193 38.2283 130.117 37.8829 130.826 37.1923C131.535 36.5203 131.89 35.4936 131.89 34.1123V31.7043C131.386 32.4323 130.686 33.0389 129.79 33.5243C128.913 34.0096 127.905 34.2523 126.766 34.2523C125.459 34.2523 124.265 33.9163 123.182 33.2443C122.099 32.5723 121.241 31.6296 120.606 30.4163C119.99 29.1843 119.682 27.7749 119.682 26.1883C119.682 24.6203 119.99 23.2296 120.606 22.0163C121.241 20.8029 122.09 19.8696 123.154 19.2163C124.237 18.5629 125.441 18.2363 126.766 18.2363ZM131.89 26.2443C131.89 25.2923 131.703 24.4803 131.33 23.8083C130.957 23.1176 130.453 22.5949 129.818 22.2403C129.183 21.8669 128.502 21.6803 127.774 21.6803C127.046 21.6803 126.374 21.8576 125.758 22.2123C125.142 22.5669 124.638 23.0896 124.246 23.7803C123.873 24.4523 123.686 25.2549 123.686 26.1883C123.686 27.1216 123.873 27.9429 124.246 28.6523C124.638 29.3429 125.142 29.8749 125.758 30.2483C126.393 30.6216 127.065 30.8083 127.774 30.8083C128.502 30.8083 129.183 30.6309 129.818 30.2763C130.453 29.9029 130.957 29.3803 131.33 28.7083C131.703 28.0176 131.89 27.1963 131.89 26.2443Z" fill="#CDD0D8"/>
<path d="M143.586 13.2803V34.0003H139.666V13.2803H143.586Z" fill="#CDD0D8"/>
<path d="M146.451 26.1883C146.451 24.6203 146.759 23.2296 147.375 22.0163C148.01 20.8029 148.859 19.8696 149.923 19.2163C151.006 18.5629 152.21 18.2363 153.535 18.2363C154.693 18.2363 155.701 18.4696 156.559 18.9363C157.437 19.4029 158.137 19.9909 158.659 20.7003V18.4883H162.607V34.0003H158.659V31.7323C158.155 32.4603 157.455 33.0669 156.559 33.5523C155.682 34.0189 154.665 34.2523 153.507 34.2523C152.201 34.2523 151.006 33.9163 149.923 33.2443C148.859 32.5723 148.01 31.6296 147.375 30.4163C146.759 29.1843 146.451 27.7749 146.451 26.1883ZM158.659 26.2443C158.659 25.2923 158.473 24.4803 158.099 23.8083C157.726 23.1176 157.222 22.5949 156.587 22.2403C155.953 21.8669 155.271 21.6803 154.543 21.6803C153.815 21.6803 153.143 21.8576 152.527 22.2123C151.911 22.5669 151.407 23.0896 151.015 23.7803C150.642 24.4523 150.455 25.2549 150.455 26.1883C150.455 27.1216 150.642 27.9429 151.015 28.6523C151.407 29.3429 151.911 29.8749 152.527 30.2483C153.162 30.6216 153.834 30.8083 154.543 30.8083C155.271 30.8083 155.953 30.6309 156.587 30.2763C157.222 29.9029 157.726 29.3803 158.099 28.7083C158.473 28.0176 158.659 27.1963 158.659 26.2443Z" fill="#CDD0D8"/>
<path d="M172.372 34.2523C171.103 34.2523 169.964 34.0283 168.956 33.5803C167.948 33.1136 167.145 32.4883 166.548 31.7043C165.969 30.9203 165.652 30.0523 165.596 29.1003H169.544C169.619 29.6976 169.908 30.1923 170.412 30.5843C170.935 30.9763 171.579 31.1723 172.344 31.1723C173.091 31.1723 173.669 31.0229 174.08 30.7243C174.509 30.4256 174.724 30.0429 174.724 29.5763C174.724 29.0723 174.463 28.6989 173.94 28.4563C173.436 28.1949 172.624 27.9149 171.504 27.6163C170.347 27.3363 169.395 27.0469 168.648 26.7483C167.92 26.4496 167.285 25.9923 166.744 25.3763C166.221 24.7603 165.96 23.9296 165.96 22.8843C165.96 22.0256 166.203 21.2416 166.688 20.5323C167.192 19.8229 167.901 19.2629 168.816 18.8523C169.749 18.4416 170.841 18.2363 172.092 18.2363C173.94 18.2363 175.415 18.7029 176.516 19.6363C177.617 20.5509 178.224 21.7923 178.336 23.3603H174.584C174.528 22.7443 174.267 22.2589 173.8 21.9043C173.352 21.5309 172.745 21.3443 171.98 21.3443C171.271 21.3443 170.72 21.4749 170.328 21.7363C169.955 21.9976 169.768 22.3616 169.768 22.8283C169.768 23.3509 170.029 23.7523 170.552 24.0323C171.075 24.2936 171.887 24.5643 172.988 24.8443C174.108 25.1243 175.032 25.4136 175.76 25.7123C176.488 26.0109 177.113 26.4776 177.636 27.1123C178.177 27.7283 178.457 28.5496 178.476 29.5763C178.476 30.4723 178.224 31.2749 177.72 31.9843C177.235 32.6936 176.525 33.2536 175.592 33.6643C174.677 34.0563 173.604 34.2523 172.372 34.2523Z" fill="#CDD0D8"/>
<path d="M187.63 34.2523C186.36 34.2523 185.222 34.0283 184.214 33.5803C183.206 33.1136 182.403 32.4883 181.806 31.7043C181.227 30.9203 180.91 30.0523 180.854 29.1003H184.802C184.876 29.6976 185.166 30.1923 185.67 30.5843C186.192 30.9763 186.836 31.1723 187.602 31.1723C188.348 31.1723 188.927 31.0229 189.338 30.7243C189.767 30.4256 189.982 30.0429 189.982 29.5763C189.982 29.0723 189.72 28.6989 189.198 28.4563C188.694 28.1949 187.882 27.9149 186.762 27.6163C185.604 27.3363 184.652 27.0469 183.906 26.7483C183.178 26.4496 182.543 25.9923 182.002 25.3763C181.479 24.7603 181.218 23.9296 181.218 22.8843C181.218 22.0256 181.46 21.2416 181.946 20.5323C182.45 19.8229 183.159 19.2629 184.074 18.8523C185.007 18.4416 186.099 18.2363 187.35 18.2363C189.198 18.2363 190.672 18.7029 191.774 19.6363C192.875 20.5509 193.482 21.7923 193.594 23.3603H189.842C189.786 22.7443 189.524 22.2589 189.058 21.9043C188.61 21.5309 188.003 21.3443 187.238 21.3443C186.528 21.3443 185.978 21.4749 185.586 21.7363C185.212 21.9976 185.026 22.3616 185.026 22.8283C185.026 23.3509 185.287 23.7523 185.81 24.0323C186.332 24.2936 187.144 24.5643 188.246 24.8443C189.366 25.1243 190.29 25.4136 191.018 25.7123C191.746 26.0109 192.371 26.4776 192.894 27.1123C193.435 27.7283 193.715 28.5496 193.734 29.5763C193.734 30.4723 193.482 31.2749 192.978 31.9843C192.492 32.6936 191.783 33.2536 190.85 33.6643C189.935 34.0563 188.862 34.2523 187.63 34.2523Z" fill="#CDD0D8"/>
</svg>
