<?xml version="1.0" encoding="UTF-8"?><svg id="_Слой_2" xmlns="http://www.w3.org/2000/svg" width="185" height="49.74" viewBox="0 0 185 49.74"><defs><style>.cls-1{fill-rule:evenodd;stroke-width:0px;}</style></defs><g id="_Слой_1-2"><g id="company_logo_mailchimp"><path class="cls-1" d="M84.6,30.75c-1.29.3-1.96-.1-1.96-.96,0-1.17,1.21-1.64,2.94-1.64.76,0,1.48.07,1.48.07,0,.5-1.09,2.21-2.46,2.53ZM85.91,19.02c-4.13,0-7.1,1.52-7.1,1.52v4.47s3.28-1.88,5.94-1.88c2.12,0,2.38,1.14,2.29,2.09,0,0-.61-.16-2.48-.16-4.4,0-6.62,2-6.62,5.21,0,3.04,2.5,4.31,4.6,4.31,3.07,0,4.42-2.06,4.83-3.04.29-.68.34-1.14.6-1.14.3,0,.2.33.18,1-.02,1.18.03,2.08.22,2.83h4.07v-7.32c0-4.57-1.62-7.9-6.52-7.9Z"/><path class="cls-1" d="M112.7,26.8c0-1.34,1.24-2.55,3.52-2.55,2.49,0,4.49,1.2,4.93,1.47v-5.17s-1.58-1.52-5.46-1.52c-4.09,0-7.5,2.39-7.5,7.55s3.09,8.01,7.49,8.01c3.44,0,5.48-1.89,5.48-1.89v-4.91c-.65.36-2.45,1.61-4.92,1.61-2.61,0-3.55-1.2-3.55-2.6ZM58.3,19.36s.26,1.12-.08,2.57c-.17.74-.49,1.37-.11,1.37.27,0,.27-.22.61-1.01.51-1.16,1.58-3.27,4.07-3.27s3.49,1.44,3.86,2.79c.28,1.03.04,1.49.38,1.49.24,0,.33-.53.63-1.21.54-1.21,1.71-3.08,4.09-3.08,3.58,0,4.95,2.59,4.95,6.47v8.75h-5.33v-8.07c0-1.34-.22-2.65-1.44-2.65-1.14,0-1.67,2.01-1.67,3.31v7.41h-5.42v-8.07c0-1.72-.24-2.65-1.45-2.65-1.05,0-1.66,1.85-1.66,3.31v7.4h-5.4v-14.88h3.96ZM94.2,19.38s.92.53,2.71.53,2.7-.53,2.7-.53v14.86h-5.4v-14.86ZM138.79,19.38s.92.53,2.71.53,2.7-.53,2.7-.53v14.86h-5.4v-14.86ZM106.75,14.86v19.39h-5.4V14.86h5.4ZM127.57,14.86s.22.56.22,2.22c0,2.45-.53,4.44-.78,5.2-.13.4-.37,1.02-.03,1.03.2,0,.32-.29.56-.8.24-.51,1.43-3.48,4.56-3.48,4.31,0,4.94,3.53,4.94,7.34v7.88h-5.4v-8.2c0-1.68-.35-2.52-1.48-2.52-1.36,0-1.84,2.11-1.84,3.31v7.4h-5.4V14.86h4.66ZM149.97,19.36s.26,1.12-.08,2.57c-.17.74-.49,1.37-.11,1.37.27,0,.27-.22.61-1.01.51-1.16,1.57-3.27,4.07-3.27s3.47,1.45,3.86,2.79c.27.9.04,1.49.38,1.49.24,0,.33-.53.63-1.21.54-1.21,1.71-3.08,4.09-3.08,3.58,0,4.95,2.59,4.95,6.47v8.75h-5.33v-8.07c0-1.34-.22-2.65-1.44-2.65-1.14,0-1.67,2.01-1.67,3.31v7.41h-5.42v-8.07c0-1.72-.24-2.65-1.45-2.65-1.05,0-1.66,1.85-1.66,3.31v7.4h-5.4v-14.88h3.96ZM96.89,14.71c-1.82,0-3.31.97-3.31,2.16s1.48,2.16,3.31,2.16,3.31-.97,3.31-2.16-1.48-2.16-3.31-2.16ZM141.47,14.71c-1.83,0-3.31.97-3.31,2.16s1.48,2.16,3.31,2.16,3.31-.97,3.31-2.16-1.48-2.16-3.31-2.16Z"/><path class="cls-1" d="M177.58,31.04c-1.24,0-2.15-1.57-2.15-3.76s.94-3.76,2.11-3.76c1.5,0,2.14,1.38,2.14,3.76s-.59,3.76-2.1,3.76ZM179.06,19.01c-2.78,0-4.05,2.08-4.6,3.27-.36.78-.35,1.01-.61,1.01-.38,0-.06-.63.11-1.37.34-1.46.08-2.57.08-2.57h-3.95v18.98h5.4v-6.02c.64,1.08,1.82,2.24,3.65,2.24,3.9,0,5.87-3.3,5.87-7.77,0-5.06-2.35-7.78-5.93-7.78"/><path class="cls-1" d="M35.25,23.51c.36-.04.71-.05,1.03,0,.19-.42.22-1.16.05-1.95-.25-1.18-.58-1.9-1.27-1.79-.69.11-.72.97-.47,2.15.14.67.39,1.24.66,1.59Z"/><path class="cls-1" d="M29.32,24.44c.49.22.8.36.92.24.08-.08.05-.23-.06-.42-.24-.4-.75-.8-1.28-1.03-1.09-.47-2.39-.31-3.39.41-.33.24-.65.58-.6.78.01.07.06.12.18.13.27.03,1.23-.45,2.33-.52.78-.05,1.42.2,1.91.41Z"/><path class="cls-1" d="M28.32,25.01c-.65.1-1,.31-1.23.51-.19.17-.32.36-.31.49,0,.06.03.1.05.12.03.03.06.04.11.04.15,0,.47-.13.47-.13.9-.32,1.49-.28,2.08-.22.32.04.48.06.55-.05.02-.03.05-.1-.02-.21-.15-.24-.8-.66-1.69-.55Z"/><path class="cls-1" d="M33.25,27.1c.44.21.92.13,1.08-.19.16-.32-.07-.75-.51-.97-.44-.21-.92-.13-1.08.19-.16.32.07.75.51.97Z"/><path class="cls-1" d="M36.07,24.64c-.36,0-.65.38-.66.87,0,.49.27.89.63.89.36,0,.65-.38.66-.87,0-.49-.27-.89-.63-.89Z"/><path class="cls-1" d="M12.18,33.43c-.09-.11-.23-.08-.37-.04-.1.02-.21.05-.33.05-.26,0-.48-.12-.61-.31-.16-.25-.15-.62.03-1.04l.08-.19c.29-.64.76-1.71.23-2.73-.4-.77-1.06-1.25-1.85-1.35-.76-.1-1.54.19-2.04.74-.79.87-.91,2.05-.76,2.47.06.15.14.2.21.2.13.02.33-.08.46-.41l.04-.11c.06-.18.16-.5.33-.77.2-.32.52-.54.89-.62.38-.08.76,0,1.09.2.55.36.76,1.04.53,1.68-.12.33-.32.97-.28,1.49.09,1.06.74,1.49,1.33,1.53.57.02.97-.3,1.07-.53.06-.14,0-.22-.02-.26"/><path class="cls-1" d="M17.59,13.97c1.86-2.15,4.14-4.01,6.19-5.06.07-.04.15.04.11.11-.16.29-.48.93-.57,1.4-.02.07.07.13.13.09,1.27-.87,3.49-1.8,5.43-1.92.08,0,.12.1.06.15-.3.23-.62.54-.86.86-.04.05,0,.13.07.13,1.36,0,3.29.49,4.54,1.19.08.05.02.21-.07.19-1.9-.43-5-.76-8.23.02-2.88.7-5.08,1.79-6.68,2.95-.08.06-.18-.05-.11-.12ZM26.84,34.76h0s0,0,0,0h0ZM34.5,35.66c.06-.02.09-.09.09-.15,0-.08-.08-.13-.15-.12,0,0-3.96.59-7.71-.78.41-1.33,1.49-.85,3.13-.71,2.95.18,5.6-.26,7.56-.82,1.7-.49,3.92-1.45,5.65-2.81.58,1.28.79,2.69.79,2.69,0,0,.45-.08.83.15.36.22.62.68.44,1.85-.36,2.2-1.3,3.99-2.87,5.64-.96,1.03-2.12,1.93-3.45,2.58-.71.37-1.46.69-2.25.95-5.93,1.94-12.01-.19-13.97-4.77-.16-.34-.29-.7-.39-1.08-.83-3.02-.13-6.63,2.09-8.91.14-.14.28-.32.28-.53,0-.18-.11-.37-.21-.5-.77-1.12-3.46-3.04-2.92-6.74.39-2.66,2.71-4.54,4.89-4.43l.55.03c.94.06,1.76.18,2.54.21,1.3.06,2.46-.13,3.84-1.28.47-.39.84-.72,1.47-.83.07-.01.23-.07.56-.06.34.02.66.11.95.3,1.11.74,1.26,2.52,1.32,3.82.03.74.12,2.55.15,3.06.07,1.18.38,1.35,1.01,1.56.35.12.68.2,1.17.34,1.46.41,2.33.83,2.88,1.36.33.33.48.69.53,1.03.17,1.26-.98,2.82-4.03,4.23-3.33,1.55-7.37,1.94-10.16,1.63l-.98-.11c-2.23-.3-3.51,2.59-2.17,4.56.86,1.27,3.22,2.1,5.57,2.1,5.4,0,9.55-2.3,11.09-4.29l.12-.18c.08-.11.01-.18-.08-.11-1.26.86-6.86,4.29-12.85,3.26,0,0-.73-.12-1.39-.38-.53-.21-1.63-.71-1.77-1.85,4.83,1.5,7.88.08,7.88.08ZM7.95,24.17c-1.68.33-3.16,1.28-4.07,2.6-.54-.45-1.55-1.33-1.73-1.67-1.45-2.75,1.58-8.09,3.69-11.1C11.06,6.55,19.24.9,23.03,1.93c.62.17,2.65,2.54,2.65,2.54,0,0-3.79,2.1-7.3,5.03-4.73,3.64-8.3,8.94-10.44,14.68ZM10.77,36.78c-.25.04-.51.06-.78.05-2.53-.07-5.26-2.35-5.53-5.05-.3-2.99,1.23-5.28,3.93-5.83.32-.07.71-.1,1.13-.08,1.51.08,3.74,1.24,4.25,4.54.45,2.92-.27,5.89-3,6.36ZM45.04,31.49c-.02-.08-.16-.59-.36-1.21-.19-.62-.39-1.06-.39-1.06.78-1.16.79-2.21.69-2.8-.11-.73-.42-1.35-1.03-2-.61-.64-1.87-1.3-3.63-1.8l-.93-.26s-.05-2.18-.09-3.1c-.03-.67-.09-1.7-.41-2.73-.38-1.38-1.05-2.6-1.89-3.37,2.3-2.39,3.74-5.02,3.74-7.28,0-4.34-5.34-5.66-11.91-2.93l-1.39.59s-2.52-2.47-2.55-2.5C17.39-5.49-6.03,20.55,1.46,26.87l1.64,1.39c-.42,1.1-.59,2.36-.45,3.71.17,1.74,1.07,3.41,2.53,4.7,1.38,1.22,3.2,2,4.96,2,2.91,6.72,9.57,10.84,17.38,11.07,8.38.25,15.41-3.68,18.35-10.74.19-.5,1.01-2.73,1.01-4.7s-1.12-2.8-1.83-2.8Z"/></g></g></svg>