<?xml version="1.0" encoding="UTF-8"?><svg id="_Слой_2" xmlns="http://www.w3.org/2000/svg" width="185" height="28.18" viewBox="0 0 185 28.18"><defs><style>.cls-1{stroke-width:0px;}</style></defs><g id="_Слой_1-2"><g id="company_logo_medium"><path class="cls-1" d="M13.88.31c7.65,0,13.87,6.23,13.87,13.94s-6.23,13.94-13.87,13.94S0,22.02,0,14.25,6.23.31,13.88.31ZM122.66,0v24.42c0,1.85.74,2.34,2.16,2.71l.06.31h-7.83v-3.02c-.93,2.22-2.84,3.58-5.3,3.58-4.19,0-6.97-3.82-6.97-9.5,0-3.21.92-5.92,2.65-7.95,1.67-1.97,3.95-3.02,6.48-3.02,1.23,0,2.28.25,3.15.8v-3.33c0-.74-.18-1.23-.56-1.6-.49-.43-1.29-.62-2.53-.49h-.06v-.31l8.76-2.59ZM152.38,7.58v16.84c0,1.85.74,2.34,2.16,2.71v.31h-7.83v-3.08c-.92,2.22-2.96,3.64-5.24,3.64-2.71,0-4.44-1.23-5.12-3.64l-.12-.62c-.12-.62-.18-1.23-.18-1.85v-9c0-1.97-.43-2.59-2.16-2.71h-.06v-.31l7.83-2.28v14.18c0,2.1.92,3.27,2.65,3.27,1.05,0,1.91-.55,2.4-1.48v-10.67c0-2.03-.37-2.65-1.79-2.78h-.06v-.31l7.52-2.22ZM95.83,7.52c2.1,0,4.13.74,5.49,2.03,1.54,1.48,2.34,3.64,2.4,6.48v.06h-11.78c-.25,4.07,2.28,7.4,5.61,7.52,2.4.18,4.5-1.3,5.67-3.7l.31.12c-.68,4.5-3.33,7.89-7.95,7.89-5.24,0-8.2-4.38-8.33-9.87v-1.42c.25-2.4.99-4.56,2.28-6.17.8-.99,1.73-1.73,2.84-2.22.92-.49,2.28-.74,3.39-.74h.06ZM177.41,7.58c3.33,0,5.37,2.1,5.37,5.67v11.47c0,1.36.62,2.04,2.16,2.41h.06v.31h-7.89v-14c0-2.22-.8-3.33-2.47-3.33-1.36,0-2.03.99-2.4,1.85.06.43.12.86.12,1.3v11.65c0,1.42.43,1.91,1.67,2.22h.06v.31h-7.34v-14c0-2.22-.86-3.33-2.47-3.33-1.3,0-1.97.93-2.28,1.67v13.2c0,1.42.43,1.91,1.67,2.22h.06v.31h-7.34v-14.68c0-1.97-.49-2.59-2.16-2.71h-.06v-.31l7.83-2.16v3.27c.8-2.1,2.65-3.33,4.99-3.33,2.65,0,4.5,1.3,5.12,3.64.8-2.22,2.84-3.64,5.3-3.64ZM64.94,1.23l7.34,17.21,7.34-17.21h7.89l-.06.31-.09.02c-1.36.31-2.07.82-2.07,2.51v20.97c.12,1.36.86,1.79,2.16,2.1h.06v.31h-10.05v-.31h.06c1.3-.31,2.03-.74,2.16-2.1V4.63l-9.68,22.75h-.55l-9.43-22.14v19.3c0,1.73.74,2.22,2.16,2.53h.06v.31h-5.8v-.31h.06c1.42-.31,2.16-.8,2.16-2.53V4.07c0-1.73-.74-2.22-2.16-2.53h-.06v-.31h8.51ZM132.21,7.58v16.95c.03,1.76.77,2.24,2.16,2.6l.06.31h-7.83v-14.55c0-1.97-.43-2.59-2.16-2.71h-.06v-.31l7.83-2.28ZM36.08,1.11c3.76,0,6.91,5.92,6.91,13.13s-3.08,13.13-6.91,13.13-6.91-5.86-6.91-13.13,3.08-13.13,6.91-13.13ZM46.68,2.47c1.42,0,2.47,5.3,2.47,11.78s-1.11,11.78-2.47,11.78-2.44-5.2-2.47-11.58v-.19c0-6.48,1.11-11.78,2.47-11.78ZM114.82,8.63c-2.47,0-4.01,3.27-4.01,8.33,0,2.4.43,4.5,1.17,5.92.68,1.36,1.66,2.1,2.77,2.1s1.91-.49,2.28-1.42v-13.57c-.43-.86-1.23-1.36-2.22-1.36ZM95.77,8.7c-2.22,0-3.52,2.65-3.7,6.35v.06h6.72c.12-2.9-.37-4.81-1.3-5.73-.49-.43-1.05-.68-1.73-.68ZM129.19.18c1.79,0,3.14,1.36,3.14,3.15s-1.36,3.15-3.14,3.15-3.15-1.36-3.15-3.15,1.36-3.15,3.15-3.15Z"/></g></g></svg>