<?xml version="1.0" encoding="UTF-8"?><svg id="_Слой_2" xmlns="http://www.w3.org/2000/svg" width="185" height="25.22" viewBox="0 0 185 25.22"><defs><style>.cls-1{stroke-width:0px;}</style></defs><g id="_Слой_1-2"><g id="company_logo_gumroad"><path class="cls-1" d="M109.96,0c-3.82,0-7.56,3.46-7.99,8.46V.41h-5.49v24.27h5.56v-11.75c0-3.29,2.33-7.93,7.92-7.93V0Z"/><path class="cls-1" d="M168.24,20.8V4.17h3.22c4.29,0,7.78,2.68,7.78,8.18s-3.49,8.45-7.78,8.45h-3.22ZM162.74,24.69h9.39c5.77,0,12.87-3.75,12.87-12.34S177.89.41,172.13.41h-9.39v24.27Z"/><path class="cls-1" d="M141.7,12.62c0-4.43,2.28-8.05,6.03-8.05s5.63,3.62,5.63,8.05-2.01,8.05-5.63,8.05-6.03-3.62-6.03-8.05ZM136.07,12.89c0,7.24,3.75,12.34,9.66,12.34,4.29,0,6.84-2.82,8.18-7.38v6.84h5.5V.42h-5.5v6.44C152.7,2.56,150.15.01,146.13.01c-6.04,0-10.06,5.5-10.06,12.87Z"/><path class="cls-1" d="M10.86,25.22C4.02,25.22,0,19.73,0,12.89S4.43.01,12.87.01s11.67,5.9,11.8,9.25h-6.3c-.13-1.88-1.74-4.69-5.63-4.69-4.16,0-6.84,3.62-6.84,8.05s2.68,8.05,6.84,8.05c3.75,0,5.36-2.95,6.03-5.9h-6.03v-2.41h12.66v12.34h-5.56v-7.78c-.4,2.82-2.15,8.31-8.98,8.31Z"/><path class="cls-1" d="M36.67,25.22c-5.23,0-8.45-3.49-8.45-10.46V.41h5.63v14.35c0,3.62,1.74,5.36,4.69,5.36,5.77,0,7.91-7.11,7.91-12.07V.41h5.63v24.27h-5.5v-8.99c-1.07,4.96-4.02,9.52-9.92,9.52Z"/><path class="cls-1" d="M85.75,0c-4.81,0-7.84,4.64-8.83,8.93-.17-5.75-3-8.93-7.52-8.93-3.91,0-7.54,3.49-8.48,9V.41h-5.49v24.27h5.56v-8.7c0-2.16.9-11.01,6.5-11.01,3.63,0,4,3.27,4,7.74v11.97h5.56v-8.7c0-2.16.94-11.01,6.53-11.01,3.62,0,4,3.27,4,7.74v11.97h5.57v-14.36c.02-6.89-2.41-10.33-7.4-10.33Z"/><path class="cls-1" d="M121.89,0c-7.2,0-12.08,5.64-12.08,12.61,0,7.68,4.64,12.61,12.08,12.61s12.16-5.64,12.16-12.61c0-7.68-4.73-12.61-12.16-12.61ZM121.89,20.93c-4.19,0-6.91-3.55-6.91-8.32s2.72-8.32,6.91-8.32,6.8,3.55,6.8,8.32-2.62,8.32-6.8,8.32Z"/></g></g></svg>