<?xml version="1.0" encoding="UTF-8"?><svg id="_Слой_2" xmlns="http://www.w3.org/2000/svg" width="185" height="47.65" viewBox="0 0 185 47.65"><defs><style>.cls-1{stroke-width:0px;}</style></defs><g id="_Слой_1-2"><g id="company_logo_linear"><path class="cls-1" d="M.3,27.84l19.5,19.5C9.84,45.66,1.98,37.8.3,27.84Z"/><path class="cls-1" d="M0,22.55l25.1,25.1c1.49-.08,2.95-.3,4.36-.64L.64,18.19c-.34,1.41-.56,2.86-.64,4.36Z"/><path class="cls-1" d="M1.89,14.45l31.31,31.31c1.14-.49,2.24-1.07,3.28-1.72L3.61,11.17c-.65,1.04-1.23,2.14-1.72,3.28Z"/><path class="cls-1" d="M5.73,8.3C10.1,3.22,16.58,0,23.81,0c13.17,0,23.84,10.67,23.84,23.84,0,7.23-3.22,13.71-8.3,18.08L5.73,8.3Z"/><path id="company_logo_linear-2" class="cls-1" d="M72.49,38.12h17.47v-4.76h-11.7V10.83h-5.77v27.29ZM93.67,38.12h5.68v-20.47h-5.68v20.47ZM96.52,15.23c1.65,0,3.08-1.25,3.08-2.88s-1.43-2.86-3.08-2.86-3.06,1.25-3.06,2.86,1.43,2.88,3.06,2.88ZM109.57,26.28c.01-2.64,1.59-4.18,3.88-4.18s3.65,1.49,3.64,4v12.02h5.68v-13.03c0-4.77-2.8-7.7-7.06-7.7-3.04,0-5.24,1.49-6.16,3.88h-.24v-3.61h-5.41v20.47h5.68v-11.83ZM136.61,38.52c5.08,0,8.47-2.47,9.27-6.26l-5.24-.35c-.57,1.56-2.05,2.37-3.93,2.37-2.84,0-4.64-1.88-4.64-4.93h0s13.94-.01,13.94-.01v-1.56c0-6.96-4.21-10.39-9.62-10.39-6.02,0-9.93,4.28-9.93,10.59s3.85,10.54,10.14,10.54ZM132.08,25.82c.11-2.33,1.89-4.2,4.41-4.2s4.16,1.76,4.18,4.2h-8.59ZM155.64,38.5c3.03,0,4.98-1.32,5.98-3.22h.16v2.84h5.38v-13.8c0-4.88-4.17-6.93-8.59-6.93-5.04,0-8.22,2.35-9.01,6.08l5.25.43c.39-1.36,1.6-2.36,3.64-2.36s3.02.96,3.04,2.68c.01,1.35-1.4,1.55-4.96,1.89-4.05.37-7.69,1.73-7.69,6.3,0,4.05,2.89,6.1,6.8,6.1ZM157.27,34.59c-1.75,0-3-.81-3-2.37s1.32-2.39,3.32-2.66c1.24-.17,3.26-.47,3.94-.92v2.17c0,2.15-1.77,3.78-4.26,3.78ZM171.57,38.12h5.68v-11.58c.01-2.5,1.82-4.22,4.12-4.22.77,0,1.4.21,1.93.48l1.71-4.69c-.75-.45-1.71-.75-2.8-.75-2.3,0-4.17,1.33-4.92,3.86h-.21v-3.57h-5.5v20.47Z"/></g></g></svg>