<?xml version="1.0" encoding="UTF-8"?><svg id="_Слой_2" xmlns="http://www.w3.org/2000/svg" width="185" height="52" viewBox="0 0 185 52"><defs><style>.cls-1{stroke-width:0px;}</style></defs><g id="_Слой_1-2"><g id="company_logo_hubspot"><path class="cls-1" d="M20.03,8.3v14.77H6.45v-14.77H0v35.25h6.45v-14.29h13.58v14.29h6.45V8.3h-6.45Z"/><path class="cls-1" d="M47.12,32.15c0,1.41-.56,2.77-1.56,3.77-1,1-2.36,1.56-3.77,1.56s-2.77-.56-3.77-1.56c-1-1-1.56-2.35-1.56-3.77v-15.1h-6.12v15.1c0,3.03,1.21,5.94,3.35,8.08,2.15,2.14,5.06,3.35,8.09,3.35s5.95-1.2,8.09-3.35c2.15-2.14,3.35-5.05,3.35-8.08v-15.1h-6.1v15.1Z"/><path class="cls-1" d="M92.45,18.61c0-3.09,2.05-4.08,4.3-4.08,1.81,0,4.2,1.38,5.77,3.04l4.01-4.71c-2-2.7-6.06-4.57-9.38-4.57-6.64,0-11.44,3.88-11.44,10.31,0,11.93,14.61,8.15,14.61,14.83,0,2.06-2,3.88-4.3,3.88-3.62,0-4.79-1.77-6.45-3.63l-4.45,4.62c2.84,3.49,6.35,5.26,10.55,5.26,6.3,0,11.38-3.93,11.38-10.07,0-13.25-14.61-9.13-14.61-14.88"/><path class="cls-1" d="M182.85,37.92c-3.62,0-4.64-1.56-4.64-3.95v-10.58h5.62v-5.36h-5.62v-7.08l-6.2,2.78v21.56c0,5.51,3.81,8.29,9.04,8.29.82.01,1.64-.05,2.45-.2l1.51-5.56c-.68.05-1.47.09-2.15.09"/><path class="cls-1" d="M70.41,17.23c-3.03,0-5.14.88-7.19,2.88v-11.6h-6.13v21.51c0,8.05,5.83,13.57,12.38,13.57,7.27,0,13.66-5.61,13.66-13.17s-5.88-13.17-12.73-13.17h0ZM70.37,37.43c-1.37,0-2.72-.41-3.86-1.17-1.14-.76-2.03-1.85-2.56-3.11-.53-1.27-.66-2.66-.4-4.01.27-1.35.93-2.58,1.9-3.55.97-.97,2.21-1.63,3.56-1.9,1.35-.27,2.75-.13,4.02.39,1.27.53,2.36,1.41,3.12,2.56.76,1.14,1.17,2.48,1.17,3.86,0,1.84-.73,3.61-2.04,4.91-1.3,1.3-3.07,2.03-4.92,2.03Z"/><path class="cls-1" d="M136.94,30.09c0-7.57-6.38-13.17-13.66-13.17-6.55,0-12.38,5.51-12.38,13.57v21.52h6.13v-11.62c2.04,2,4.16,2.88,7.19,2.88,6.84,0,12.73-5.71,12.73-13.17h0ZM131.14,30.01c0,1.37-.41,2.71-1.17,3.86-.76,1.14-1.85,2.03-3.12,2.56s-2.67.66-4.02.39c-1.35-.27-2.59-.93-3.56-1.9-.97-.97-1.63-2.21-1.9-3.55-.27-1.35-.13-2.74.4-4.01s1.42-2.35,2.56-3.11c1.14-.76,2.49-1.17,3.86-1.17,1.84,0,3.61.73,4.92,2.03,1.3,1.3,2.04,3.07,2.04,4.91Z"/><path class="cls-1" d="M156.68,16.82v-6.08c.81-.38,1.49-.97,1.97-1.72.48-.75.74-1.62.74-2.5v-.14c0-1.24-.5-2.43-1.38-3.3-.88-.88-2.07-1.37-3.31-1.37h-.14c-1.24,0-2.43.5-3.31,1.37-.88.88-1.37,2.06-1.38,3.3v.14c0,.89.26,1.75.74,2.5.48.75,1.16,1.34,1.97,1.72v6.08c-2.31.35-4.49,1.31-6.32,2.78l-16.73-12.99c.12-.43.18-.87.19-1.32,0-1.04-.31-2.06-.89-2.93-.58-.87-1.4-1.55-2.37-1.95-.97-.4-2.03-.51-3.05-.3-1.03.2-1.97.7-2.71,1.44-.74.74-1.24,1.68-1.45,2.7-.21,1.02-.1,2.08.3,3.05.4.96,1.08,1.79,1.94,2.37.87.58,1.89.89,2.94.89.92,0,1.82-.25,2.61-.71l16.45,12.78c-1.48,2.23-2.25,4.86-2.22,7.53.04,2.68.88,5.28,2.42,7.47l-5,5c-.4-.13-.82-.2-1.24-.2-.86,0-1.7.25-2.41.73-.71.48-1.27,1.15-1.6,1.95-.33.79-.41,1.66-.25,2.51.17.84.58,1.61,1.19,2.22.61.61,1.38,1.02,2.22,1.19.84.17,1.72.08,2.51-.25.79-.33,1.47-.88,1.95-1.6.48-.71.73-1.55.73-2.41,0-.42-.07-.84-.2-1.24l4.95-4.94c1.62,1.23,3.49,2.08,5.49,2.48,1.99.4,4.05.34,6.02-.18,1.97-.52,3.79-1.48,5.33-2.81,1.54-1.33,2.75-2.99,3.55-4.86.8-1.87,1.16-3.89,1.05-5.92-.11-2.03-.68-4-1.66-5.78-.99-1.77-2.37-3.3-4.04-4.46-1.67-1.16-3.58-1.93-5.59-2.24ZM154.62,36.83c-1.35,0-2.68-.4-3.81-1.15-1.13-.75-2-1.82-2.52-3.07-.52-1.25-.65-2.63-.39-3.95.26-1.33.92-2.55,1.87-3.5.96-.96,2.18-1.61,3.51-1.87,1.33-.26,2.71-.13,3.96.39,1.25.52,2.32,1.39,3.07,2.52.75,1.12,1.15,2.45,1.15,3.8,0,1.81-.72,3.55-2.01,4.84-1.29,1.28-3.03,2-4.84,2Z"/></g></g></svg>