<?xml version="1.0" encoding="UTF-8"?><svg id="_Слой_2" xmlns="http://www.w3.org/2000/svg" width="185" height="37.23" viewBox="0 0 185 37.23"><defs><style>.cls-1{stroke-width:0px;}</style></defs><g id="_Слой_2-2"><g id="company_logo_gymstory"><path class="cls-1" d="M79.73,14.47h2.27c.08,0,.12.05.12.12v5.83c0,1.94.27,3.19.79,3.73,1.26,1.66,2.61,2.49,4.07,2.49h.44c1.57,0,3-.94,4.29-2.83.35-.7.52-1.3.52-1.78v-7.31c0-.08.05-.12.1-.12h2.43c.08,0,.12.06.12.17-.03,8.42-.06,13.24-.06,14.45.09,0,.14.09.16.27,0,2.84-1.3,5.06-3.9,6.64-1.27.58-2.56.87-3.85.87-3.42,0-5.79-1.5-7.13-4.49-.34-1.02-.51-2.11-.51-3.25l.1-.05h2.43c.08,0,.12.05.12.1v.55c0,1.5.98,2.87,2.94,4.12.74.33,1.36.49,1.86.49h.57c1.43,0,2.76-.74,3.97-2.22.49-.87.73-1.63.73-2.27v-2.44h-.06c-1.42,1.08-3.12,1.63-5.09,1.63-3.35,0-5.78-1.73-7.3-5.19-.27-.98-.41-1.72-.41-2.22.08-.66.12-1.31.12-1.94v-5.25c0-.08.05-.12.1-.12h.02Z"/><path class="cls-1" d="M96.22,14.64h2.22c.08,0,.12.05.12.1v1.59h.06c1.4-1.07,3.06-1.59,5-1.59,1.75,0,3.34.54,4.79,1.59,0-.37.97-.85,2.9-1.43.63-.12,1.29-.19,2-.21,2.19,0,4.08.8,5.69,2.4,1.12,1.35,1.68,3.15,1.68,5.42v6.43c0,.08-.03.12-.12.12h-2.39c-.08,0-.12-.03-.12-.12v-7.24c0-1.48-.97-2.82-2.9-4.04-.72-.33-1.34-.49-1.84-.49h-.22c-1.19,0-2.37.63-3.55,1.87h.05s.19-.23.57-.55c.56.94.84,2.29.84,4.05v6.43c0,.08-.03.12-.12.12h-2.39c-.08,0-.12-.03-.12-.12v-7.24c0-1.48-.97-2.83-2.9-4.05-.72-.31-1.34-.47-1.84-.47h-.22c-1.38,0-2.7.78-3.94,2.34-.56.63-.84,1.85-.84,3.66v5.86c0,.07-.03.1-.12.1h-2.22c-.08,0-.12-.03-.12-.1v-5.17c0-.91-.03-1.45-.1-1.65.03-.74.06-1.35.06-1.82v-5.75c0-.07.05-.1.1-.1h-.03ZM108.41,21.08v.12h.06v-.12h-.06ZM108.47,20.87v.12h.06v-.12h-.06ZM108.57,20.55v.1h.06v-.1h-.06ZM108.63,20.39v.1h.06v-.1h-.06Z"/><path class="cls-1" d="M127.82,14.64c2.43,0,4.26.84,5.46,2.5.37.7.55,1.34.55,1.92l-.1.05h-2.18s-.17-.28-.38-.84c-.72-.81-1.87-1.22-3.44-1.22-2,.08-3.19.65-3.57,1.7-.03.26-.06.4-.06.43,0,.64,1.43,1.27,4.29,1.91,3.63.93,5.45,2.16,5.45,3.68,0,2.01-1.31,3.43-3.96,4.25-.73.14-1.37.21-1.9.21h-.55c-2.33,0-4.11-.91-5.34-2.71-.26-.76-.38-1.33-.38-1.71l.1-.05h2.18c.06.07.21.38.44.95.76.74,1.82,1.12,3.17,1.12h.35c1.82,0,2.96-.57,3.44-1.7l.06-.37c0-.49-1.59-1.14-4.79-1.92-3.3-.98-4.96-2.22-4.96-3.72,0-2.02,1.31-3.42,3.96-4.19.73-.19,1.45-.27,2.16-.27h.01Z"/><path class="cls-1" d="M135.06,8.83h2.29c.07,0,.1.05.1.12v5.72h5.59c.08,0,.12.05.12.1v2.2c0,.08-.03.12-.12.12h-5.53v3.58c0,2.02.5,3.43,1.49,4.22,1.13,1.14,2.29,1.71,3.46,1.71h.63c.08,0,.12.05.12.12v2.29c0,.08-.13.14-.41.17-3.94,0-6.49-1.76-7.66-5.28-.19-1.08-.28-1.69-.28-1.82.03-.86.06-1.51.06-1.92v-11.23c0-.08.05-.12.12-.12h.02Z"/><path class="cls-1" d="M151.98,14.63c2.9,0,5.06,1.11,6.5,3.33.73,1.23,1.11,2.57,1.11,3.99,0,3-1.35,5.2-4.06,6.61-1.08.44-2.16.67-3.26.67h-.7c-2.78,0-4.98-1.45-6.61-4.37-.47-1.21-.7-2.18-.7-2.9,0-2.43,1.13-4.48,3.37-6.14,1.36-.78,2.82-1.16,4.34-1.16v-.02ZM146.87,21.95c0,1.62.95,3.03,2.85,4.22.79.41,1.55.62,2.26.62,1.45,0,2.82-.76,4.07-2.28.62-.9.92-1.75.92-2.55,0-1.58-.91-2.97-2.73-4.15-.81-.44-1.61-.67-2.37-.67-1.55,0-2.91.69-4.07,2.06-.62.87-.93,1.79-.93,2.77h.01Z"/><path class="cls-1" d="M160.8,14.47h2.26c.08,0,.12.05.12.12v1.62h.06c1.38-1.07,3.11-1.62,5.18-1.62l.06.1v2.32c0,.08-.03.12-.12.12h-.28c-1.4,0-2.72.79-4,2.36-.56.64-.84,1.87-.84,3.71v5.92c0,.08-.03.12-.12.12h-2.26c-.07,0-.1-.03-.1-.12v-5.22c0-.92-.03-1.47-.12-1.66.03-.74.06-1.35.06-1.83v-5.81c0-.08.05-.12.1-.12h0Z"/><path class="cls-1" d="M169.73,14.47h2.27c.08,0,.12.05.12.12v5.83c0,1.94.27,3.19.79,3.73,1.26,1.66,2.61,2.49,4.07,2.49h.44c1.57,0,3-.94,4.29-2.83.35-.7.52-1.3.52-1.78v-7.31c0-.08.05-.12.1-.12h2.43c.08,0,.12.06.12.17-.03,8.42-.06,13.24-.06,14.45.09,0,.14.09.16.27,0,2.84-1.3,5.06-3.9,6.64-1.27.58-2.56.87-3.85.87-3.42,0-5.79-1.5-7.13-4.49-.34-1.02-.51-2.11-.51-3.25l.1-.05h2.43c.08,0,.12.05.12.1v.55c0,1.5.98,2.87,2.94,4.12.74.33,1.37.49,1.86.49h.57c1.43,0,2.76-.74,3.97-2.22.49-.87.73-1.63.73-2.27v-2.44h-.06c-1.42,1.08-3.12,1.63-5.09,1.63-3.35,0-5.78-1.73-7.3-5.19-.27-.98-.41-1.72-.41-2.22.08-.66.12-1.31.12-1.94v-5.25c0-.08.05-.12.1-.12h.02Z"/><path class="cls-1" d="M74.2,21.51c-.92,3.22-4.01,5.6-7.68,5.6-4.41,0-7.98-3.42-7.98-7.63s3.57-7.63,7.98-7.63c3.27,0,6.09,1.87,7.32,4.56h3.05c-1.37-4.22-5.49-7.29-10.36-7.29-5.98,0-10.84,4.64-10.84,10.37s4.85,10.37,10.84,10.37c5.26,0,9.65-3.58,10.64-8.33h-2.97Z"/><rect class="cls-1" x="65.86" y="18.91" width="11.3" height="2.59"/><rect class="cls-1" x="74.43" y="18.91" width="2.71" height="10.8"/><path class="cls-1" d="M19.1,4.81c6.56-.15,12.17,3.89,14.09,9.52.34,1,1.29,1.7,2.4,1.7h0c1.68,0,2.93-1.56,2.42-3.08C35.36,4.96,27.21-.68,17.82.07,8.43.81.57,8.38.03,17.54c-.63,10.76,8.31,19.69,19.43,19.69,3.36,0,6.53-.81,9.27-2.25,1.23-.64,1.72-2.09,1.06-3.28h0c-.66-1.19-2.21-1.61-3.44-.95-2.05,1.06-4.4,1.66-6.9,1.66-8.18,0-14.77-6.5-14.43-14.39.31-7.17,6.57-13.04,14.08-13.22h0Z"/><path class="cls-1" d="M34.2,21.14h-12.73c0,2.41,2.04,4.35,4.56,4.35h8.17v4.78c0,2.41,2.04,4.35,4.56,4.35v-13.48h-4.56Z"/></g></g></svg>