<?xml version="1.0" encoding="UTF-8"?><svg id="_Слой_2" xmlns="http://www.w3.org/2000/svg" width="185" height="37" viewBox="0 0 185 37"><defs><style>.cls-1{fill-rule:evenodd;stroke-width:0px;}</style></defs><g id="_Слой_1-2"><g id="company_logo_asana"><path class="cls-1" d="M180.34,28.19c.11,1.29,1.13,2.94,2.9,2.94h1.03c.4,0,.73-.33.73-.74V7.36h0c-.02-.39-.34-.7-.73-.7h-3.2c-.39,0-.7.31-.72.7h0v1.87c-1.96-2.45-5.06-3.47-8.16-3.47-7.06,0-12.77,5.8-12.77,12.95s5.72,12.95,12.77,12.95c3.1,0,6.49-1.22,8.16-3.47h0ZM172.19,27.12c-4.49,0-8.12-3.77-8.12-8.42s3.64-8.42,8.12-8.42,8.13,3.77,8.13,8.42-3.64,8.42-8.13,8.42Z"/><path class="cls-1" d="M155.35,17.07c0-6.72-4.18-11.25-10.85-11.25-3.18,0-5.79,1.87-6.71,3.47-.2-1.25-.86-2.57-2.89-2.57h-1.04c-.4,0-.73.33-.73.74v20.8h0v2.24h0c.02.39.34.7.73.7h3.2s.1,0,.14-.02c.02,0,.04-.01.06-.02.02,0,.05-.01.07-.02.03-.01.05-.03.08-.04.01,0,.03-.01.04-.02.03-.02.06-.05.09-.07,0,0,0,0,.01-.01.03-.03.06-.07.09-.1.08-.11.13-.25.14-.39h0v-13.6c0-3.61,2.89-6.53,6.45-6.53s6.45,2.93,6.45,6.53v11.37s0,0,0,0c0,.01,0,.02,0,.03v2.21h0c.02.39.34.7.73.7h3.2s.1,0,.14-.02c.02,0,.04-.01.06-.02.03,0,.05-.01.08-.02.03-.01.05-.03.08-.04.02,0,.03-.01.05-.02.03-.02.06-.04.08-.07,0,0,.01-.01.02-.02.03-.03.06-.06.08-.1,0,0,0,0,0,0,.08-.11.13-.24.14-.39,0,0,0,0,0,0h0v-13.42Z"/><path class="cls-1" d="M121.98,28.19c.11,1.29,1.13,2.94,2.9,2.94h1.03c.4,0,.73-.33.73-.74V7.36h0c-.02-.39-.34-.7-.73-.7h-3.2c-.39,0-.7.31-.73.7h0v1.87c-1.96-2.45-5.06-3.47-8.16-3.47-7.05,0-12.77,5.8-12.77,12.95s5.72,12.95,12.77,12.95c3.1,0,6.49-1.22,8.16-3.47h0ZM113.83,27.12c-4.49,0-8.12-3.77-8.12-8.42s3.64-8.42,8.12-8.42,8.12,3.77,8.12,8.42-3.64,8.42-8.12,8.42Z"/><path class="cls-1" d="M82.1,24.89c2.14,1.5,4.47,2.23,6.72,2.23s4.35-1.12,4.35-3.08c0-2.61-4.81-3.02-7.84-4.06-3.03-1.04-5.63-3.2-5.63-6.68,0-5.34,4.69-7.54,9.07-7.54,2.78,0,5.64.93,7.49,2.26.64.49.25,1.05.25,1.05l-1.77,2.57c-.2.29-.55.54-1.05.23-.5-.31-2.25-1.57-4.93-1.57s-4.28,1.25-4.28,2.8c0,1.86,2.09,2.44,4.54,3.08,4.27,1.17,8.93,2.57,8.93,7.88,0,4.7-4.34,7.61-9.14,7.61-3.64,0-6.73-1.05-9.33-2.98-.54-.55-.16-1.06-.16-1.06l1.76-2.55c.36-.48.81-.31,1.01-.17Z"/><path class="cls-1" d="M69.78,28.19c.11,1.29,1.13,2.94,2.9,2.94h1.03c.4,0,.73-.33.73-.74V7.36h0c-.02-.39-.34-.7-.72-.7h-3.2c-.39,0-.7.31-.73.7h0v1.87c-1.96-2.45-5.06-3.47-8.16-3.47-7.05,0-12.77,5.8-12.77,12.95s5.72,12.95,12.77,12.95c3.1,0,6.49-1.22,8.16-3.47h0ZM61.63,27.12c-4.49,0-8.12-3.77-8.12-8.42s3.64-8.42,8.12-8.42,8.12,3.77,8.12,8.42-3.64,8.42-8.12,8.42Z"/><path class="cls-1" d="M30.93,19.59c-4.75,0-8.6,3.9-8.6,8.71s3.85,8.71,8.6,8.71,8.6-3.9,8.6-8.71-3.85-8.71-8.6-8.71ZM8.6,19.59c-4.75,0-8.6,3.9-8.6,8.71s3.85,8.71,8.6,8.71,8.6-3.9,8.6-8.71-3.85-8.71-8.6-8.71ZM28.36,8.71c0,4.81-3.85,8.71-8.6,8.71s-8.6-3.9-8.6-8.71S15.02,0,19.76,0s8.6,3.9,8.6,8.71Z"/></g></g></svg>