<?xml version="1.0" encoding="UTF-8"?><svg id="_Слой_2" xmlns="http://www.w3.org/2000/svg" width="17" height="17" viewBox="0 0 17 17"><defs><style>.cls-1{fill:#111204;stroke-width:0px;}</style></defs><g id="_Слой_1-2"><g id="item_see_pricing"><path id="Vector" class="cls-1" d="M8.5,0C3.83,0,0,3.83,0,8.5s3.83,8.5,8.5,8.5,8.5-3.82,8.5-8.5S13.18,0,8.5,0ZM11.65,9.1l-2.55,2.55c-.34.34-.85.34-1.19,0-.34-.34-.34-.85,0-1.19l1.11-1.11h-3.06c-.51,0-.85-.34-.85-.85s.34-.85.85-.85h3.06l-1.11-1.1c-.34-.34-.34-.85,0-1.19.34-.34.85-.34,1.19,0l2.55,2.55c.34.34.34.85,0,1.19Z"/></g></g></svg>