<?xml version="1.0" encoding="UTF-8"?><svg id="_Слой_2" xmlns="http://www.w3.org/2000/svg" width="17" height="17" viewBox="0 0 17 17"><defs><style>.cls-1{stroke-width:0px;}</style></defs><g id="_Слой_1-2"><g id="load_more_circle"><rect class="cls-1" x="7.38" y="12.24" width="1.7" height="4.76" rx=".85" ry=".85"/><rect class="cls-1" x="7.38" y="0" width="1.7" height="4.76" rx=".85" ry=".85"/><path class="cls-1" d="M10.9,5.87h0c-.33-.33-.33-.86,0-1.19l2.2-2.16c.33-.33.87-.33,1.2,0h0c.33.33.33.86,0,1.19l-2.2,2.16c-.33.33-.87.33-1.2,0Z"/><rect class="cls-1" x="13.76" y="6.11" width="1.69" height="4.79" rx=".84" ry=".84" transform="translate(6.11 23.11) rotate(-90)"/><rect class="cls-1" x=".76" y="6.98" width="1.69" height="3.2" rx=".84" ry=".84" transform="translate(-6.98 10.17) rotate(-90)"/><path class="cls-1" d="M14.25,14.53h0c-.33.33-.87.33-1.2,0l-2.18-2.18c-.33-.33-.33-.86,0-1.19h0c.33-.33.87-.33,1.2,0l2.18,2.18c.33.33.33.86,0,1.19Z"/><path class="cls-1" d="M5.58,5.84h0c-.33.33-.87.33-1.2,0l-2.18-2.18c-.33-.33-.33-.86,0-1.19h0c.33-.33.87-.33,1.2,0l2.18,2.18c.33.33.33.86,0,1.19Z"/></g></g></svg>